<?xml version="1.0" encoding="UTF-8" standalone="no"?>
<!-- Created with Inkscape (http://www.inkscape.org/) -->

<svg
   xmlns:dc="http://purl.org/dc/elements/1.1/"
   xmlns:cc="http://creativecommons.org/ns#"
   xmlns:rdf="http://www.w3.org/1999/02/22-rdf-syntax-ns#"
   xmlns:svg="http://www.w3.org/2000/svg"
   xmlns="http://www.w3.org/2000/svg"
   xmlns:sodipodi="http://sodipodi.sourceforge.net/DTD/sodipodi-0.dtd"
   xmlns:inkscape="http://www.inkscape.org/namespaces/inkscape"
   id="svg2"
   version="1.1"
   inkscape:version="0.48.5 r10040"
   width="900"
   height="675"
   xml:space="preserve"
   sodipodi:docname="Modern Synthesis.svg"><metadata
     id="metadata8"><rdf:RDF><cc:Work
         rdf:about=""><dc:format>image/svg+xml</dc:format><dc:type
           rdf:resource="http://purl.org/dc/dcmitype/StillImage" /><dc:title /></cc:Work></rdf:RDF></metadata><defs
     id="defs6"><clipPath
       clipPathUnits="userSpaceOnUse"
       id="clipPath16"><path
         d="m 0,1.2207e-4 720,0 0,539.99999793 -720,0 L 0,1.2207e-4 z"
         clip-rule="evenodd"
         id="path18" /></clipPath><clipPath
       clipPathUnits="userSpaceOnUse"
       id="clipPath26"><path
         d="M 1.0729e-5,0 720.00001,0 l 0,540 -719.999999271,0 0,-540 z"
         clip-rule="evenodd"
         id="path28" /></clipPath><clipPath
       clipPathUnits="userSpaceOnUse"
       id="clipPath38"><path
         d="M 1.0729e-5,0 720.00001,0 l 0,540 -719.999999271,0 0,-540 z"
         clip-rule="evenodd"
         id="path40" /></clipPath><clipPath
       clipPathUnits="userSpaceOnUse"
       id="clipPath50"><path
         d="M 1.0729e-5,0 720.00001,0 l 0,540 -719.999999271,0 0,-540 z"
         clip-rule="evenodd"
         id="path52" /></clipPath><clipPath
       clipPathUnits="userSpaceOnUse"
       id="clipPath62"><path
         d="M 1.0729e-5,0 720.00001,0 l 0,540 -719.999999271,0 0,-540 z"
         clip-rule="evenodd"
         id="path64" /></clipPath><clipPath
       clipPathUnits="userSpaceOnUse"
       id="clipPath74"><path
         d="M 1.0729e-5,0 720.00001,0 l 0,540 -719.999999271,0 0,-540 z"
         clip-rule="evenodd"
         id="path76" /></clipPath><clipPath
       clipPathUnits="userSpaceOnUse"
       id="clipPath86"><path
         d="M 1.0729e-5,0 720.00001,0 l 0,540 -719.999999271,0 0,-540 z"
         clip-rule="evenodd"
         id="path88" /></clipPath><clipPath
       clipPathUnits="userSpaceOnUse"
       id="clipPath100"><path
         d="M 1.0729e-5,0 720.00001,0 l 0,540 -719.999999271,0 0,-540 z"
         clip-rule="evenodd"
         id="path102" /></clipPath><clipPath
       clipPathUnits="userSpaceOnUse"
       id="clipPath112"><path
         d="M 1.0729e-5,0 720.00001,0 l 0,540 -719.999999271,0 0,-540 z"
         clip-rule="evenodd"
         id="path114" /></clipPath><clipPath
       clipPathUnits="userSpaceOnUse"
       id="clipPath124"><path
         d="M 1.0729e-5,0 720.00001,0 l 0,540 -719.999999271,0 0,-540 z"
         clip-rule="evenodd"
         id="path126" /></clipPath><clipPath
       clipPathUnits="userSpaceOnUse"
       id="clipPath136"><path
         d="M 1.0729e-5,0 720.00001,0 l 0,540 -719.999999271,0 0,-540 z"
         clip-rule="evenodd"
         id="path138" /></clipPath><clipPath
       clipPathUnits="userSpaceOnUse"
       id="clipPath150"><path
         d="M 1.0729e-5,0 720.00001,0 l 0,540 -719.999999271,0 0,-540 z"
         clip-rule="evenodd"
         id="path152" /></clipPath><clipPath
       clipPathUnits="userSpaceOnUse"
       id="clipPath162"><path
         d="M 1.0729e-5,0 720.00001,0 l 0,540 -719.999999271,0 0,-540 z"
         clip-rule="evenodd"
         id="path164" /></clipPath><clipPath
       clipPathUnits="userSpaceOnUse"
       id="clipPath176"><path
         d="M 1.0729e-5,0 720.00001,0 l 0,540 -719.999999271,0 0,-540 z"
         clip-rule="evenodd"
         id="path178" /></clipPath><clipPath
       clipPathUnits="userSpaceOnUse"
       id="clipPath188"><path
         d="M 1.0729e-5,0 720.00001,0 l 0,540 -719.999999271,0 0,-540 z"
         clip-rule="evenodd"
         id="path190" /></clipPath><clipPath
       clipPathUnits="userSpaceOnUse"
       id="clipPath200"><path
         d="M 1.0729e-5,0 720.00001,0 l 0,540 -719.999999271,0 0,-540 z"
         clip-rule="evenodd"
         id="path202" /></clipPath><clipPath
       clipPathUnits="userSpaceOnUse"
       id="clipPath214"><path
         d="M 1.0729e-5,0 720.00001,0 l 0,540 -719.999999271,0 0,-540 z"
         clip-rule="evenodd"
         id="path216" /></clipPath><clipPath
       clipPathUnits="userSpaceOnUse"
       id="clipPath226"><path
         d="M 1.0729e-5,0 720.00001,0 l 0,540 -719.999999271,0 0,-540 z"
         clip-rule="evenodd"
         id="path228" /></clipPath><clipPath
       clipPathUnits="userSpaceOnUse"
       id="clipPath238"><path
         d="M 1.0729e-5,0 720.00001,0 l 0,540 -719.999999271,0 0,-540 z"
         clip-rule="evenodd"
         id="path240" /></clipPath><clipPath
       clipPathUnits="userSpaceOnUse"
       id="clipPath252"><path
         d="M 1.0729e-5,0 720.00001,0 l 0,540 -719.999999271,0 0,-540 z"
         clip-rule="evenodd"
         id="path254" /></clipPath><clipPath
       clipPathUnits="userSpaceOnUse"
       id="clipPath264"><path
         d="M 1.0729e-5,0 720.00001,0 l 0,540 -719.999999271,0 0,-540 z"
         clip-rule="evenodd"
         id="path266" /></clipPath><clipPath
       clipPathUnits="userSpaceOnUse"
       id="clipPath276"><path
         d="M 1.0729e-5,0 720.00001,0 l 0,540 -719.999999271,0 0,-540 z"
         clip-rule="evenodd"
         id="path278" /></clipPath><clipPath
       clipPathUnits="userSpaceOnUse"
       id="clipPath288"><path
         d="M 1.0729e-5,0 720.00001,0 l 0,540 -719.999999271,0 0,-540 z"
         clip-rule="evenodd"
         id="path290" /></clipPath></defs><sodipodi:namedview
     pagecolor="#ffffff"
     bordercolor="#666666"
     borderopacity="1"
     objecttolerance="10"
     gridtolerance="10"
     guidetolerance="10"
     inkscape:pageopacity="0"
     inkscape:pageshadow="2"
     inkscape:window-width="1027"
     inkscape:window-height="813"
     id="namedview4"
     showgrid="false"
     inkscape:zoom="0.69925926"
     inkscape:cx="450"
     inkscape:cy="337.5"
     inkscape:window-x="352"
     inkscape:window-y="94"
     inkscape:window-maximized="0"
     inkscape:current-layer="g10" /><g
     id="g10"
     inkscape:groupmode="layer"
     inkscape:label="Modern Synthesis"
     transform="matrix(1.25,0,0,-1.25,0,675)"><g
   id="g22"
   transform="translate(0,3.2)"><g
     id="g24"
     clip-path="url(#clipPath26)"><text
   transform="matrix(1,0,0,-1,323.98,47.424)"
   id="text30"><tspan
     style="font-size:36px;font-variant:normal;font-weight:normal;writing-mode:lr-tb;fill:#843c0c;fill-opacity:1;fill-rule:nonzero;stroke:none;font-family:Calibri;-inkscape-font-specification:Calibri"
     x="0 30.780001 49.751999 68.723999 86.652 99.216003 118.116"
     y="0"
     sodipodi:role="line"
     id="tspan32">Modern </tspan></text>


</g></g><g
   id="g34"
   transform="translate(0,3.2)"><g
     id="g36"
     clip-path="url(#clipPath38)"><text
   transform="matrix(1,0,0,-1,316.3,4.224)"
   id="text42"><tspan
     style="font-size:36px;font-variant:normal;font-weight:normal;writing-mode:lr-tb;fill:#843c0c;fill-opacity:1;fill-rule:nonzero;stroke:none;font-family:Calibri;-inkscape-font-specification:Calibri"
     x="0 13.428 29.736 48.348 60.408001 79.307999 97.236 111.312 119.592"
     y="0"
     sodipodi:role="line"
     id="tspan44">synthesis</tspan></text>


</g></g><g
   id="g46"><g
     id="g48"
     clip-path="url(#clipPath50)"><text
   transform="matrix(1,0,0,-1,554.5,309.05)"
   id="text54"><tspan
     style="fill:#000000;fill-opacity:1;fill-rule:nonzero;stroke:none;font-family:Calibri;font-variant:normal;font-weight:normal;font-size:27.96;writing-mode:lr;-inkscape-font-specification:Calibri"
     x="0 23.9058 37.82988 52.50888 67.07604 81.00012 87.43092 93.72192 107.11476 121.79376"
     y="0"
     sodipodi:role="line"
     id="tspan56">Mendelian </tspan></text>


</g></g><g
   id="g58"><g
     id="g60"
     clip-path="url(#clipPath62)"><text
   transform="matrix(1,0,0,-1,551.11,275.45)"
   id="text66"><tspan
     style="fill:#000000;fill-opacity:1;fill-rule:nonzero;stroke:none;font-family:Calibri;font-variant:normal;font-weight:normal;font-size:27.96;writing-mode:lr;-inkscape-font-specification:Calibri"
     x="0 6.4308 21.02592 35.70492 49.629 59.38704 65.81784 74.73708 88.12992 102.80892 114.74784"
     y="0"
     sodipodi:role="line"
     id="tspan68">inheritance</tspan></text>


</g></g><g
   id="g70"><g
     id="g72"
     clip-path="url(#clipPath74)"><text
   transform="matrix(1,0,0,-1,531.55,251.21)"
   id="text78"><tspan
     style="fill:#000000;fill-opacity:1;fill-rule:nonzero;stroke:none;font-family:Calibri;font-variant:normal;font-weight:normal;font-size:18;writing-mode:lr;-inkscape-font-specification:Calibri"
     x="0 5.454 14.526 18.702 26.136 35.622 45.072 49.212 58.176 65.214 69.444 78.93 84.42 88.488 97.506 106.128 113.742 123.192 127.368 135.774 144.738 154.242 163.206 167.706"
     y="0"
     sodipodi:role="line"
     id="tspan80">(2 copies of each gene, </tspan></text>


</g></g><g
   id="g82"><g
     id="g84"
     clip-path="url(#clipPath86)"><text
   transform="matrix(1,0,0,-1,542.71,229.61)"
   id="text90"><tspan
     style="fill:#000000;fill-opacity:1;fill-rule:nonzero;stroke:none;font-family:Calibri;font-variant:normal;font-weight:normal;font-size:18.024;writing-mode:lr;-inkscape-font-specification:Calibri"
     x="0 9.138168 13.211592 18.708912 24.728928 34.227576 48.628752 52.702176 61.678128 70.311624 77.935776 87.398376 91.543896 101.006496 109.639992 115.660008 124.63596 134.026464 140.064504"
     y="0"
     sodipodi:role="line"
     id="tspan92">1 from each parent)</tspan></text>


</g></g><path
   d="M 613.77,222.58 414.66,91.099 l 3.31,-5.007 199.11,131.488 -3.31,5 z M 413.86,97.759 403.8,80.33 l 19.98,2.409 -9.92,15.02 z"
   style="fill:#5b9bd5;fill-opacity:1;fill-rule:nonzero;stroke:none"
   id="path94" /><g
   id="g96"><g
     id="g98"
     clip-path="url(#clipPath100)"><text
   transform="matrix(1,0,0,-1,45.432,510.24)"
   id="text104"><tspan
     style="fill:#000000;fill-opacity:1;fill-rule:nonzero;stroke:none;font-family:Calibri;font-variant:normal;font-weight:normal;font-size:27.984;writing-mode:lr;-inkscape-font-specification:Calibri"
     x="0 23.92632 37.330656 43.683024 53.057664 67.749264 82.328928 93.270672 99.595056 112.999392 127.690992"
     y="0"
     sodipodi:role="line"
     id="tspan106">Malthusian </tspan></text>


</g></g><g
   id="g108"><g
     id="g110"
     clip-path="url(#clipPath112)"><text
   transform="matrix(1,0,0,-1,40.248,476.62)"
   id="text116"><tspan
     style="fill:#000000;fill-opacity:1;fill-rule:nonzero;stroke:none;font-family:Calibri;font-variant:normal;font-weight:normal;font-size:27.96;writing-mode:lr;-inkscape-font-specification:Calibri"
     x="0 11.65932 26.39424 48.73428 63.41328 77.33736 86.70396 93.02292 102.38952 108.82032 123.55524"
     y="0"
     sodipodi:role="line"
     id="tspan118">competition</tspan></text>


</g></g><g
   id="g120"><g
     id="g122"
     clip-path="url(#clipPath124)"><text
   transform="matrix(1,0,0,-1,27.528,452.38)"
   id="text128"><tspan
     style="fill:#000000;fill-opacity:1;fill-rule:nonzero;stroke:none;font-family:Calibri;font-variant:normal;font-weight:normal;font-size:18;writing-mode:lr;-inkscape-font-specification:Calibri"
     x="0 5.508 13.914 22.878 32.364 46.746 55.71 61.668 67.95 71.982 79.542 83.844 93.294 102.78 112.23 121.752 125.838 134.352 140.382 144.432 153.918 163.368"
     y="0"
     sodipodi:role="line"
     id="tspan130">(geometric population </tspan></text>


</g></g><g
   id="g132"><g
     id="g134"
     clip-path="url(#clipPath136)"><text
   transform="matrix(1,0,0,-1,13.128,430.78)"
   id="text140"><tspan
     style="fill:#000000;fill-opacity:1;fill-rule:nonzero;stroke:none;font-family:Calibri;font-variant:normal;font-weight:normal;font-size:18;writing-mode:lr;-inkscape-font-specification:Calibri"
     x="0 8.478 14.526 23.886 36.756 42.732 52.182 56.682 60.948 65.034 69.12 83.502 87.642 93.366 102.33 111.834 116.136 122.13 131.094 138.186 147.672 157.122 163.152 170.712 179.676 186.768"
     y="0"
     sodipodi:role="line"
     id="tspan142">growth, limited resources)</tspan></text>


</g></g><g
   id="g146"><g
     id="g148"
     clip-path="url(#clipPath150)"><text
   transform="matrix(1,0,0,-1,14.76,309.05)"
   id="text154"><tspan
     style="fill:#000000;fill-opacity:1;fill-rule:nonzero;stroke:none;font-family:Calibri;font-variant:normal;font-weight:normal;font-size:27.96;writing-mode:lr;-inkscape-font-specification:Calibri"
     x="0 18.06216 31.20336 40.56996 55.24896 64.33596 77.7288 84.1596 90.70224 101.6346 115.55868 121.9056 135.82968 147.65676 157.02336 163.45416 178.18908"
     y="0"
     sodipodi:role="line"
     id="tspan156">Natural selection</tspan></text>


</g></g><g
   id="g158"><g
     id="g160"
     clip-path="url(#clipPath162)"><text
   transform="matrix(1,0,0,-1,22.8,284.81)"
   id="text166"><tspan
     style="fill:#000000;fill-opacity:1;fill-rule:nonzero;stroke:none;font-family:Calibri;font-variant:normal;font-weight:normal;font-size:18;writing-mode:lr;-inkscape-font-specification:Calibri"
     x="0 5.454 12.6 19.638 29.142 35.478 43.614 47.754 55.638 64.26 68.4 72.468 81.954 87.444 91.512 97.542 106.992 115.956 120.186 125.676 129.816 135.54 141.3 150.264 157.14 163.728 171.252"
     y="0"
     sodipodi:role="line"
     id="tspan168">(“survival of the fittest”)</tspan></text>


</g></g><path
   d="m 113.08,278.25 240.9,-186.929 -3.68,-4.74 -240.9,186.929 3.68,4.74 z M 355.29,97.9 l 8.7,-18.145 -19.74,3.925 11.04,14.22 z"
   style="fill:#5b9bd5;fill-opacity:1;fill-rule:nonzero;stroke:none"
   id="path170" /><g
   id="g172"><g
     id="g174"
     clip-path="url(#clipPath176)"><text
   transform="matrix(1,0,0,-1,324.55,510.24)"
   id="text180"><tspan
     style="fill:#000000;fill-opacity:1;fill-rule:nonzero;stroke:none;font-family:Calibri;font-variant:normal;font-weight:normal;font-size:27.984;writing-mode:lr;-inkscape-font-specification:Calibri"
     x="0 14.27184 27.676176 37.442592 43.79496 57.003408 66.378048 72.730416 87.477984"
     y="0"
     sodipodi:role="line"
     id="tspan182">Variation</tspan></text>


</g></g><g
   id="g184"><g
     id="g186"
     clip-path="url(#clipPath188)"><text
   transform="matrix(1,0,0,-1,322.27,485.98)"
   id="text192"><tspan
     style="fill:#000000;fill-opacity:1;fill-rule:nonzero;stroke:none;font-family:Calibri;font-variant:normal;font-weight:normal;font-size:18;writing-mode:lr;-inkscape-font-specification:Calibri"
     x="0 5.454 14.904 20.88 29.844 38.862 48.312 55.404 59.85 64.026 69.912 78.534 86.148 95.112 102.15 106.65"
     y="0"
     sodipodi:role="line"
     id="tspan194">(breeds, races, </tspan></text>


</g></g><g
   id="g196"><g
     id="g198"
     clip-path="url(#clipPath200)"><text
   transform="matrix(1,0,0,-1,333.31,464.38)"
   id="text204"><tspan
     style="fill:#000000;fill-opacity:1;fill-rule:nonzero;stroke:none;font-family:Calibri;font-variant:normal;font-weight:normal;font-size:18;writing-mode:lr;-inkscape-font-specification:Calibri"
     x="0 7.038 16.542 25.902 32.94 42.444 51.408 59.022 63.09 72.054 79.146"
     y="0"
     sodipodi:role="line"
     id="tspan206">subspecies)</tspan></text>


</g></g><path
   d="m 374.23549,457.86 -221.20884,-109.88 2.51451,-5.4 221.20884,109.88 -2.51451,5.4 z m -221.10245,-103.17 -11.92457,-15.9 19.45841,-0.32 -7.53384,16.22 z"
   style="fill:#5b9bd5;fill-opacity:1;fill-rule:nonzero;stroke:none"
   id="path208"
   inkscape:connector-curvature="0" /><g
   id="g210"><g
     id="g212"
     clip-path="url(#clipPath214)"><text
   transform="matrix(1,0,0,-1,562.1,510.24)"
   id="text218"><tspan
     style="fill:#000000;fill-opacity:1;fill-rule:nonzero;stroke:none;font-family:Calibri;font-variant:normal;font-weight:normal;font-size:27.984;writing-mode:lr;-inkscape-font-specification:Calibri"
     x="0 23.92632 38.533968 47.544816 60.753264 70.127904 76.480272 91.22784"
     y="0"
     sodipodi:role="line"
     id="tspan220">Mutation</tspan></text>


</g></g><g
   id="g222"><g
     id="g224"
     clip-path="url(#clipPath226)"><text
   transform="matrix(1,0,0,-1,552.38,485.98)"
   id="text230"><tspan
     style="fill:#000000;fill-opacity:1;fill-rule:nonzero;stroke:none;font-family:Calibri;font-variant:normal;font-weight:normal;font-size:18;writing-mode:lr;-inkscape-font-specification:Calibri"
     x="0 5.454 12.492 26.874 35.496 39.636 43.686 47.862 55.422 64.872 73.494 82.998 91.404 100.368 107.46 111.528 115.668 125.118"
     y="0"
     sodipodi:role="line"
     id="tspan232">(small changes in </tspan></text>


</g></g><g
   id="g234"><g
     id="g236"
     clip-path="url(#clipPath238)"><text
   transform="matrix(1,0,0,-1,522.36,464.38)"
   id="text242"><tspan
     style="fill:#000000;fill-opacity:1;fill-rule:nonzero;stroke:none;font-family:Calibri;font-variant:normal;font-weight:normal;font-size:18;writing-mode:lr;-inkscape-font-specification:Calibri"
     x="0 4.086 13.572 23.058 27.144 35.28 39.42 48.87 58.374 66.996 71.136 75.402 82.962 92.448 101.07 106.974 115.596 123.21 128.934 137.898 144.18 148.248 155.088 161.118 165.168 172.728 179.766"
     y="0"
     sodipodi:role="line"
     id="tspan244">individual characteristics)</tspan></text>


</g></g><path
   d="m 618,455.17 0.33,-101.25 -6,-0.02 -0.33,101.25 6,0.02 z m 6.32,-98.23 -8.95,-18.03 -9.05,17.97 18,0.06 z"
   style="fill:#5b9bd5;fill-opacity:1;fill-rule:nonzero;stroke:none"
   id="path246" /><g
   id="g248"><g
     id="g250"
     clip-path="url(#clipPath252)"><text
   transform="matrix(1,0,0,-1,285.91,309.05)"
   id="text256"><tspan
     style="fill:#000000;fill-opacity:1;fill-rule:nonzero;stroke:none;font-family:Calibri;font-variant:normal;font-weight:normal;font-size:27.96;writing-mode:lr;-inkscape-font-specification:Calibri"
     x="0 17.64276 31.56684 46.24584 60.00216 69.36876 75.79956 87.62664 93.9456 106.19208 119.58492 129.34296 135.77376 148.91496 158.28156 164.71236 179.44728"
     y="0"
     sodipodi:role="line"
     id="tspan258">Genetic variation</tspan></text>


</g></g><g
   id="g260"><g
     id="g262"
     clip-path="url(#clipPath264)"><text
   transform="matrix(1,0,0,-1,284.11,284.81)"
   id="text268"><tspan
     style="fill:#000000;fill-opacity:1;fill-rule:nonzero;stroke:none;font-family:Calibri;font-variant:normal;font-weight:normal;font-size:18;writing-mode:lr;-inkscape-font-specification:Calibri"
     x="0 5.454 14.076 18.126 22.212 31.176 35.316 44.28 51.354 55.656 65.142 70.632 74.7 78.84 88.29 97.74 101.88 110.016 114.102 123.552 133.038 141.66 145.8 150.066 158.472 167.436 176.94 185.904 192.996 197.442"
     y="0"
     sodipodi:role="line"
     id="tspan270">(alleles of individual genes, </tspan></text>


</g></g><g
   id="g272"><g
     id="g274"
     clip-path="url(#clipPath276)"><text
   transform="matrix(1,0,0,-1,317.95,263.21)"
   id="text280"><tspan
     style="fill:#000000;fill-opacity:1;fill-rule:nonzero;stroke:none;font-family:Calibri;font-variant:normal;font-weight:normal;font-size:18;writing-mode:lr;-inkscape-font-specification:Calibri"
     x="0 7.434 16.92 31.302 40.752 44.892 54.342 58.482 67.932 76.41 80.73 86.616 96.102 100.17 108.648 112.788 120.816 129.78"
     y="0"
     sodipodi:role="line"
     id="tspan282">combining to give </tspan></text>


</g></g><g
   id="g284"><g
     id="g286"
     clip-path="url(#clipPath288)"><text
   transform="matrix(1,0,0,-1,305.23,241.61)"
   id="text292"><tspan
     style="fill:#000000;fill-opacity:1;fill-rule:nonzero;stroke:none;font-family:Calibri;font-variant:normal;font-weight:normal;font-size:18;writing-mode:lr;-inkscape-font-specification:Calibri"
     x="0 7.434 16.92 26.28 32.31 36.36 45.81 55.296 64.782 74.232 81.324 85.5 93.42 102.042 108.324 112.374 120.888 126.918 130.968 140.454 149.904"
     y="0"
     sodipodi:role="line"
     id="tspan294">continuous variation)</tspan></text>


</g></g><path
   d="m 385.92,232.2 0.11,-132.372 -6,-0.006 -0.11,132.378 6,0 z m 6.11,-129.37 -8.99,-18.005 -9.01,17.995 18,0.01 z"
   style="fill:#5b9bd5;fill-opacity:1;fill-rule:nonzero;stroke:none"
   id="path296" /><path
   d="m 613.7,457.84 -218.71,-109.53 2.69,-5.37 218.71,109.54 -2.69,5.36 z m -218.72,-102.82 -12.06,-16.11 20.12,0.01 -8.06,16.1 z"
   style="fill:#5b9bd5;fill-opacity:1;fill-rule:nonzero;stroke:none"
   id="path298" /><text
   xml:space="preserve"
   style="font-size:13.292799px;font-style:normal;font-variant:normal;font-weight:normal;font-stretch:normal;text-align:start;line-height:125%;letter-spacing:0px;word-spacing:0px;writing-mode:lr-tb;text-anchor:start;fill:#0000ff;fill-opacity:1;stroke:none;font-family:Sans;-inkscape-font-specification:Sans"
   x="119.18229"
   y="-57.203369"
   id="text3123"
   sodipodi:linespacing="125%"
   transform="scale(1,-1)"><tspan
     sodipodi:role="line"
     id="tspan3125"
     x="119.18229"
     y="-57.203369"
     style="font-size:17.60000038px;fill:#0000ff">Early 20th Century</tspan></text>

<text
   xml:space="preserve"
   style="font-size:13.292799px;font-style:normal;font-variant:normal;font-weight:normal;font-stretch:normal;text-align:start;line-height:125%;letter-spacing:0px;word-spacing:0px;writing-mode:lr-tb;text-anchor:start;fill:#0000ff;fill-opacity:1;stroke:none;font-family:Sans;-inkscape-font-specification:Sans"
   x="118.65807"
   y="-390.60461"
   id="text3123-1"
   sodipodi:linespacing="125%"
   transform="scale(1,-1)"><tspan
     sodipodi:role="line"
     id="tspan3125-7"
     x="118.65807"
     y="-390.60461"
     style="font-size:17.60000038px;fill:#0000ff">19th Century</tspan></text>

<path
   inkscape:connector-curvature="0"
   d="m 109.07831,424.2317 0.33,-77.33735 -6,-0.0153 -0.33,77.33735 6,0.0153 z m 6.32,-75.03059 -8.95,-13.77178 -9.050003,13.72595 18.000003,0.0458 z"
   style="fill:#5b9bd5;fill-opacity:1;fill-rule:nonzero;stroke:none"
   id="path246-1" /></g></svg>