<?xml version="1.0" encoding="UTF-8" standalone="no"?>
<!-- Created with Inkscape (http://www.inkscape.org/) -->
<svg
   xmlns:dc="http://purl.org/dc/elements/1.1/"
   xmlns:cc="http://web.resource.org/cc/"
   xmlns:rdf="http://www.w3.org/1999/02/22-rdf-syntax-ns#"
   xmlns:svg="http://www.w3.org/2000/svg"
   xmlns="http://www.w3.org/2000/svg"
   xmlns:sodipodi="http://sodipodi.sourceforge.net/DTD/sodipodi-0.dtd"
   xmlns:inkscape="http://www.inkscape.org/namespaces/inkscape"
   width="331"
   height="300"
   id="svg2"
   sodipodi:version="0.32"
   inkscape:version="0.45.1"
   version="1.0"
   inkscape:output_extension="org.inkscape.output.svg.inkscape"
   sodipodi:docname="Mutation_and_selection_diagram.svg"
   sodipodi:docbase="C:\Mijn Documenten\Richard\1">
  <defs
     id="defs4" />
  <sodipodi:namedview
     id="base"
     pagecolor="#ffffff"
     bordercolor="#666666"
     borderopacity="1.0"
     gridtolerance="10000"
     guidetolerance="10"
     objecttolerance="10"
     inkscape:pageopacity="0.0"
     inkscape:pageshadow="2"
     inkscape:zoom="2.5733333"
     inkscape:cx="165.5"
     inkscape:cy="150"
     inkscape:document-units="px"
     inkscape:current-layer="Text"
     width="331px"
     height="300px"
     inkscape:window-width="1280"
     inkscape:window-height="968"
     inkscape:window-x="-4"
     inkscape:window-y="-4" />
  <metadata
     id="metadata7">
    <rdf:RDF>
      <cc:Work
         rdf:about="">
        <dc:format>image/svg+xml</dc:format>
        <dc:type
           rdf:resource="http://purl.org/dc/dcmitype/StillImage" />
      </cc:Work>
    </rdf:RDF>
  </metadata>
  <g
     inkscape:label="Layer 1"
     inkscape:groupmode="layer"
     id="Layer1">
    <g
       id="Lines"
       style="fill:none;stroke:#000000;stroke-width:1px"
       transform="translate(10,10)">
      <path
         id="path2221"
         d="M 95,15 L 55,65" />
      <path
         d="M 95,15 L 95,65"
         id="path2223" />
      <path
         id="path2229"
         d="M 95,15 L 135,65" />
      <path
         id="path2231"
         d="M 55,65 L 55,115" />
      <path
         d="M 95,65 L 95,115"
         id="path2233" />
      <path
         id="path2235"
         d="M 135,65 L 135,115" />
      <path
         d="M 95,115 L 35,165"
         id="path2237" />
      <path
         id="path2239"
         d="M 95,115 L 75,165" />
      <path
         d="M 135,115 L 115,165"
         id="path2241" />
      <path
         id="path2243"
         d="M 135,115 L 155,165" />
      <path
         d="M 35,165 L 35,215"
         id="path2245" />
      <path
         id="path2247"
         d="M 75,165 L 75,215" />
      <path
         d="M 115,165 L 115,215"
         id="path2249" />
      <path
         id="path2251"
         d="M 155,165 L 155,215" />
      <path
         d="M 115,215 L 15,265"
         id="path2253" />
      <path
         id="path2255"
         d="M 115,215 L 55,265" />
      <path
         d="M 155,215 L 95,265"
         id="path2257" />
      <path
         id="path2259"
         d="M 155,215 L 135,265" />
      <path
         d="M 155,215 L 175,265"
         id="path2261" />
    </g>
    <g
       id="Circles"
       style="stroke:#000000;stroke-width:1px"
       transform="translate(10,10)">
      <path
         sodipodi:type="arc"
         style="fill:#c0c0c0"
         id="Gen1LightGrey"
         sodipodi:cx="0"
         sodipodi:cy="0"
         sodipodi:rx="15"
         sodipodi:ry="15"
         d="M 15 0 A 15 15 0 1 1 -15,0 A 15 15 0 1 1 15,0 z"
         transform="translate(95,15)" />
      <path
         sodipodi:type="arc"
         style="fill:#ffffff"
         id="Gen2White"
         sodipodi:cx="0"
         sodipodi:cy="0"
         sodipodi:rx="15"
         sodipodi:ry="15"
         d="M 15 0 A 15 15 0 1 1 -15,0 A 15 15 0 1 1 15,0 z"
         transform="translate(55,65)" />
      <path
         transform="translate(95,65)"
         d="M 15 0 A 15 15 0 1 1 -15,0 A 15 15 0 1 1 15,0 z"
         sodipodi:ry="15"
         sodipodi:rx="15"
         sodipodi:cy="0"
         sodipodi:cx="0"
         id="Gen2LightGrey"
         style="fill:#c0c0c0"
         sodipodi:type="arc" />
      <path
         sodipodi:type="arc"
         style="fill:#808080"
         id="Gen2MediumGrey"
         sodipodi:cx="0"
         sodipodi:cy="0"
         sodipodi:rx="15"
         sodipodi:ry="15"
         d="M 15 0 A 15 15 0 1 1 -15,0 A 15 15 0 1 1 15,0 z"
         transform="translate(135,65)" />
      <path
         transform="translate(55,115)"
         d="M 15 0 A 15 15 0 1 1 -15,0 A 15 15 0 1 1 15,0 z"
         sodipodi:ry="15"
         sodipodi:rx="15"
         sodipodi:cy="0"
         sodipodi:cx="0"
         id="Gen3White"
         style="fill:#ffffff"
         sodipodi:type="arc" />
      <path
         sodipodi:type="arc"
         style="fill:#c0c0c0"
         id="Gen3LightGrey"
         sodipodi:cx="0"
         sodipodi:cy="0"
         sodipodi:rx="15"
         sodipodi:ry="15"
         d="M 15 0 A 15 15 0 1 1 -15,0 A 15 15 0 1 1 15,0 z"
         transform="translate(95,115)" />
      <path
         transform="translate(135,115)"
         d="M 15 0 A 15 15 0 1 1 -15,0 A 15 15 0 1 1 15,0 z"
         sodipodi:ry="15"
         sodipodi:rx="15"
         sodipodi:cy="0"
         sodipodi:cx="0"
         id="Gen3MediumGrey"
         style="fill:#808080"
         sodipodi:type="arc" />
      <path
         transform="translate(35,165)"
         d="M 15 0 A 15 15 0 1 1 -15,0 A 15 15 0 1 1 15,0 z"
         sodipodi:ry="15"
         sodipodi:rx="15"
         sodipodi:cy="0"
         sodipodi:cx="0"
         id="Gen4LightLightGrey"
         style="fill:#d0d0d0"
         sodipodi:type="arc" />
      <path
         sodipodi:type="arc"
         style="fill:#b0b0b0"
         id="Gen4DarkLightGrey"
         sodipodi:cx="0"
         sodipodi:cy="0"
         sodipodi:rx="15"
         sodipodi:ry="15"
         d="M 15 0 A 15 15 0 1 1 -15,0 A 15 15 0 1 1 15,0 z"
         transform="translate(75,165)" />
      <path
         sodipodi:type="arc"
         style="fill:#909090"
         id="Gen4LightMediumGrey"
         sodipodi:cx="0"
         sodipodi:cy="0"
         sodipodi:rx="15"
         sodipodi:ry="15"
         d="M 15 0 A 15 15 0 1 1 -15,0 A 15 15 0 1 1 15,0 z"
         transform="translate(115,165)" />
      <path
         sodipodi:type="arc"
         style="fill:#707070"
         id="Gen4DarkMediumGrey"
         sodipodi:cx="0"
         sodipodi:cy="0"
         sodipodi:rx="15"
         sodipodi:ry="15"
         d="M 15 0 A 15 15 0 1 1 -15,0 A 15 15 0 1 1 15,0 z"
         transform="translate(155,165)" />
      <path
         sodipodi:type="arc"
         style="fill:#d0d0d0"
         id="Gen5LightLightGrey"
         sodipodi:cx="0"
         sodipodi:cy="0"
         sodipodi:rx="15"
         sodipodi:ry="15"
         d="M 15 0 A 15 15 0 1 1 -15,0 A 15 15 0 1 1 15,0 z"
         transform="translate(35,215)" />
      <path
         transform="translate(75,215)"
         d="M 15 0 A 15 15 0 1 1 -15,0 A 15 15 0 1 1 15,0 z"
         sodipodi:ry="15"
         sodipodi:rx="15"
         sodipodi:cy="0"
         sodipodi:cx="0"
         id="Gen5DarkLightGrey"
         style="fill:#b0b0b0"
         sodipodi:type="arc" />
      <path
         transform="translate(115,215)"
         d="M 15 0 A 15 15 0 1 1 -15,0 A 15 15 0 1 1 15,0 z"
         sodipodi:ry="15"
         sodipodi:rx="15"
         sodipodi:cy="0"
         sodipodi:cx="0"
         id="Gen5LightMediumGrey"
         style="fill:#909090"
         sodipodi:type="arc" />
      <path
         sodipodi:type="arc"
         style="fill:#707070"
         id="Gen5DarkMediumGrey"
         sodipodi:cx="0"
         sodipodi:cy="0"
         sodipodi:rx="15"
         sodipodi:ry="15"
         d="M 15 0 A 15 15 0 1 1 -15,0 A 15 15 0 1 1 15,0 z"
         transform="translate(155,215)" />
      <path
         sodipodi:type="arc"
         style="fill:#909090"
         id="Gen6LightMediumGrey1"
         sodipodi:cx="0"
         sodipodi:cy="0"
         sodipodi:rx="15"
         sodipodi:ry="15"
         d="M 15 0 A 15 15 0 1 1 -15,0 A 15 15 0 1 1 15,0 z"
         transform="translate(15,265)" />
      <path
         transform="translate(55,265)"
         d="M 15 0 A 15 15 0 1 1 -15,0 A 15 15 0 1 1 15,0 z"
         sodipodi:ry="15"
         sodipodi:rx="15"
         sodipodi:cy="0"
         sodipodi:cx="0"
         id="Gen6LightMediumGrey2"
         style="fill:#909090"
         sodipodi:type="arc" />
      <path
         sodipodi:type="arc"
         style="fill:#707070"
         id="Gen6DarkMediumGrey1"
         sodipodi:cx="0"
         sodipodi:cy="0"
         sodipodi:rx="15"
         sodipodi:ry="15"
         d="M 15 0 A 15 15 0 1 1 -15,0 A 15 15 0 1 1 15,0 z"
         transform="translate(95,265)" />
      <path
         transform="translate(135,265)"
         d="M 15 0 A 15 15 0 1 1 -15,0 A 15 15 0 1 1 15,0 z"
         sodipodi:ry="15"
         sodipodi:rx="15"
         sodipodi:cy="0"
         sodipodi:cx="0"
         id="Gen6DarkMediumGrey2"
         style="fill:#707070"
         sodipodi:type="arc" />
      <path
         sodipodi:type="arc"
         style="fill:#707070"
         id="Gen6DarkMediumGrey3"
         sodipodi:cx="0"
         sodipodi:cy="0"
         sodipodi:rx="15"
         sodipodi:ry="15"
         d="M 15 0 A 15 15 0 1 1 -15,0 A 15 15 0 1 1 15,0 z"
         transform="translate(175,265)" />
    </g>
    <g
       id="Crosses"
       style="fill:none;stroke:#cc0000;stroke-width:3px"
       transform="translate(10,-40)">
      <path
         id="path2199"
         d="M -15,-15 L 15,15 M 15,-15 L -15,15"
         transform="translate(55,165)" />
      <path
         id="path2212"
         d="M -15,-15 L 15,15 M 15,-15 L -15,15"
         transform="translate(35,265)" />
      <path
         id="path2214"
         d="M -15,-15 L 15,15 M 15,-15 L -15,15"
         transform="translate(75,265)" />
    </g>
    <g
       id="Text"
       style="font-size:12px;font-family:Bitstream Vera Sans"
       transform="matrix(0.999999,0,0,1,9.9997462,-40)">
      <text
         id="Mutation"
         y="110.81055"
         x="160"
         xml:space="preserve"><tspan
           y="110.81055"
           x="160"
           id="tspan2218"
           sodipodi:role="line"
           style="font-family:Gill Sans MT">Mutation creates</tspan><tspan
           id="tspan2223"
           y="125.81055"
           x="160"
           sodipodi:role="line"
           style="font-family:Gill Sans MT">variation</tspan></text>
      <text
         id="Unfavorable"
         y="160.81055"
         x="160"
         xml:space="preserve"><tspan
           id="tspan2237"
           y="160.81055"
           x="160"
           sodipodi:role="line"
           style="font-family:Gill Sans MT">Unfavorable mutations</tspan><tspan
           id="tspan2241"
           y="175.81055"
           x="160"
           sodipodi:role="line"
           style="font-family:Gill Sans MT">selected against</tspan></text>
      <text
         id="Reproduction"
         y="210.81055"
         x="180"
         xml:space="preserve"><tspan
           y="210.81055"
           x="180"
           id="tspan2245"
           sodipodi:role="line"
           style="font-family:Gill Sans MT">Reproduction and</tspan><tspan
           id="tspan2247"
           y="225.81055"
           x="180"
           sodipodi:role="line"
           style="font-family:Gill Sans MT">mutation occur</tspan></text>
      <text
         id="Favorable"
         y="260.81055"
         x="180"
         xml:space="preserve"><tspan
           y="260.81055"
           x="180"
           id="tspan2255"
           sodipodi:role="line"
           style="font-family:Gill Sans MT">Favorable mutations</tspan><tspan
           id="tspan2257"
           y="275.81055"
           x="180"
           sodipodi:role="line"
           style="font-family:Gill Sans MT">more likely to survive</tspan></text>
      <text
         id="… and"
         y="318.31055"
         x="200"
         xml:space="preserve"><tspan
           y="318.31055"
           x="200"
           id="tspan2261"
           sodipodi:role="line"
           style="font-family:Gill Sans MT">… and reproduce</tspan></text>
    </g>
  </g>
</svg>
