<?xml version="1.0" encoding="utf-8"?>
<!-- Generator: Adobe Illustrator 16.0.0, SVG Export Plug-In . SVG Version: 6.00 Build 0)  -->
<!DOCTYPE svg PUBLIC "-//W3C//DTD SVG 1.1//EN" "http://www.w3.org/Graphics/SVG/1.1/DTD/svg11.dtd">
<svg version="1.1" id="レイヤー_1" xmlns="http://www.w3.org/2000/svg" xmlns:xlink="http://www.w3.org/1999/xlink" x="0px"
	 y="0px" width="182px" height="68px" viewBox="0 0 182 68" enable-background="new 0 0 182 68" xml:space="preserve">
<g>
	<path fill="#FFFFFF" d="M38.917,59.451c-0.331-0.331-1.793-0.746-5.062-1.626c-0.461,0.462-1.433,1.489-3.365,2.993
		c2.146,0.416,7.128,0.611,7.945,0.283C39.528,60.662,39.201,59.736,38.917,59.451z"/>
	<path fill="#FFFFFF" d="M2.716,5.182C2.021,5.29,0.591,6.023,1.021,6.632C1.3,7.031,4.851,7.361,8.027,8.481
		c0.755-1.049,1.631-1.734,2.067-2.06C5.753,5.07,3.253,5.096,2.716,5.182z"/>
	<path fill="#FFFFFF" d="M29.163,17.552c-1.94-4.948-7.755-7.776-13.918-9.421c-0.629,0.411-1.703,1.613-2.061,2.483
		c6.938,2.862,10.177,5.729,11.308,8.605c1.757,4.475-3.582,11.76-6.801,15.71c-3.665,4.494-7.2,9.127-5.898,13.76
		c1.515,5.39,8.542,9.834,12.183,10.521c0.549,0.104,3.229-2.713,3.229-2.815c-4.918-1.979-10.658-5.557-10.956-10.612
		c-0.214-3.66,3.298-8.382,5.976-11.608C26.625,28.871,31.486,23.48,29.163,17.552z"/>
</g>
<g>
	<path fill="#E99523" d="M20.919,0.998C18.729,0.355-0.855,11.645,3.792,25.704c1.553,4.692,8.794,7.435,12.799,8.985l1.829-2.051
		c-4.61-1.623-7.611-3.586-9.443-7.521C3.839,14.07,19.375,3.126,20.919,2.074C21.68,1.557,21.318,1.114,20.919,0.998z"/>
	<path fill="#E99523" d="M38.412,45.23c-2.242-6.707-9.301-9.187-14.858-10.991c0,0-1.215,0.909-1.819,2.032
		c5.276,1.888,9.239,3.604,10.981,8.746c1.302,3.844-1.281,10.279-8.293,15.188c-3.091,2.163-5.072,3.37-6.046,4.053
		c-1.341,0.94-2.345,3.067-0.181,2.732c0,0,5.679-2.347,10.745-6.339C30.167,59.689,40.703,52.08,38.412,45.23z"/>
</g>
<path fill="#FFFFFF" d="M66.225,13.409H50.43h-0.813v3.142l0.748,0.059c4.049,0.316,4.049,0.316,4.049,4.607v22.68
	c0,4.347-0.086,4.354-4.551,4.662l-0.756,0.053v3.096h14.127c7.388,0,13.03-1.588,17.255-4.854
	c4.745-3.625,7.257-9.057,7.257-15.707c0-5.078-1.792-9.597-5.045-12.717C79.159,15.003,73.923,13.409,66.225,13.409z
	 M66.001,48.049c-4.011,0-5.169-1.02-5.169-4.547V20.031c0-2.031,0.198-2.424,0.37-2.539c0.13-0.1,0.845-0.598,3.952-0.598
	c3.743,0,6.824,0.735,9.162,2.19c4.052,2.38,6.272,6.938,6.272,12.851C80.589,39.725,76.755,48.049,66.001,48.049z M106.411,13.409
	H90.615h-0.813v3.142l0.749,0.059c4.049,0.315,4.049,0.315,4.049,4.607v22.68c0,4.347-0.086,4.354-4.547,4.662l-0.757,0.053v3.096
	h14.126c7.39,0,13.031-1.588,17.253-4.854c4.743-3.623,7.253-9.055,7.253-15.707c0-5.078-1.79-9.597-5.043-12.717
	C119.343,15.003,114.109,13.409,106.411,13.409z M106.186,48.049c-4.008,0-5.168-1.02-5.168-4.547V20.031
	c0-2.031,0.197-2.426,0.373-2.541c0.125-0.096,0.846-0.596,3.946-0.596c3.743,0,6.827,0.735,9.167,2.19
	c4.051,2.38,6.271,6.938,6.271,12.851C120.775,39.725,116.943,48.049,106.186,48.049z M152.018,30.878
	c3.729-1.756,5.773-4.629,5.773-8.31c0-2.895-1.346-5.613-3.512-7.103c-2.006-1.422-4.762-2.059-8.922-2.059h-14.502h-0.813v3.144
	l0.751,0.057c3.988,0.3,3.988,0.3,3.988,4.552v22.792c0,4.24,0,4.24-4.436,4.552l-0.756,0.052v3.149h13.28
	c4.812,0,8.558-0.771,11.45-2.356c3.725-2.021,5.779-5.302,5.779-9.229C160.105,36.784,158.613,32.664,152.018,30.878z
	 M141.204,19.41c0-1.771,0.176-2.024,0.342-2.124c0.289-0.192,1.329-0.448,2.74-0.448c6.039,0,6.69,4.484,6.69,6.41
	c0,4.432-2.447,6.408-7.937,6.408c0,0-1.056,0-1.838,0C141.204,28.261,141.204,19.41,141.204,19.41z M145.066,48.16
	c-3.037,0-3.862-0.537-3.862-4.32c0,0,0-9.236,0-10.64c0.753,0,1.728,0,1.728,0c6.741,0,10.021,2.446,10.021,7.479
	C152.951,47.344,147.438,48.131,145.066,48.16z M180.246,13.409H164.82v3.144l0.754,0.057c4.105,0.306,4.268,0.317,4.268,4.664
	v19.183c0,4.516-0.093,7.869-0.554,10.643c-0.62,3.213-2.246,5.424-4.968,6.734l-0.69,0.334l1.252,3.025l0.708-0.217
	c1.725-0.527,3.697-1.754,5.557-3.449c3.776-3.49,5.117-7.471,5.117-15.209V21.273c0-4.35,0.151-4.361,4.045-4.664l0.75-0.06v-3.142
	L180.246,13.409L180.246,13.409z"/>
</svg>
